<svg width="39" height="30" viewBox="0 0 39 30" fill="none" xmlns="http://www.w3.org/2000/svg">
<path d="M32.596 0.262869C33.9261 0.615626 35.1347 1.40962 36.0694 2.54465C36.5843 3.15893 37.0314 3.84266 37.4007 4.58062C37.4179 4.66077 35.0038 6.50971 33.5397 7.54106C33.4866 7.58203 33.2757 7.32018 33.0366 6.91762C32.7692 6.39352 32.3895 5.95526 31.9332 5.64376C31.4769 5.33226 30.9588 5.1577 30.4272 5.13637C28.7444 5.00456 27.66 6.00918 27.6679 7.6889C27.6533 8.10157 27.7359 8.51116 27.9069 8.87521C28.2772 9.74803 28.9647 10.2717 31.1241 11.3387C35.0991 13.2892 36.8054 14.5752 37.8585 16.4028C38.4538 17.5575 38.8204 18.8466 38.9327 20.1799C39.0449 21.5131 38.9002 22.8582 38.5085 24.1209C37.9702 25.5057 37.1165 26.701 36.0362 27.5828C34.9558 28.4645 33.6882 29.0005 32.3647 29.1351C30.958 29.3191 29.5366 29.3024 28.1335 29.0853C25.9843 28.6827 24.0044 27.5067 22.4835 25.7294C21.9088 24.9917 21.4223 24.1705 21.0366 23.2873C21.1988 23.1498 21.3695 23.026 21.5476 22.9168C21.7944 22.7565 22.7288 22.1437 23.6101 21.5613L25.2101 20.4925L25.5444 21.0483C26.1076 21.9664 26.8245 22.7485 27.6538 23.3497C28.4914 23.8734 29.4401 24.1215 30.3941 24.0665C31.3482 24.0115 32.27 23.6554 33.0569 23.0379C33.4628 22.5869 33.7166 21.9875 33.7737 21.3446C33.8308 20.7017 33.6877 20.0564 33.3694 19.5217C32.9382 18.8181 32.0569 18.2268 29.5522 16.9888C27.5883 16.2338 25.7994 14.9825 24.3194 13.3283C23.6146 12.4127 23.0941 11.3323 22.7944 10.1631C22.5728 8.831 22.5401 7.46705 22.6975 6.12318C22.9916 4.57677 23.6955 3.17079 24.714 2.09576C25.7325 1.02074 27.0162 0.328635 28.3913 0.113245C29.7915 -0.0774988 31.2089 -0.0270602 32.596 0.262869ZM19.56 2.90446L19.5772 5.4944H12.3429V28.9143H7.2413V5.49974H0.00692455V2.95612C-0.0123158 2.08503 0.00854617 1.2134 0.0694245 0.344806C0.095987 0.303837 4.49442 0.284243 9.82724 0.294931L19.5319 0.325213L19.56 2.90446Z" fill="#007ACC"/>
</svg>
